<svg width="31" height="30" viewBox="0 0 31 30" fill="none" xmlns="http://www.w3.org/2000/svg">
<path d="M28.6532 14.7949L16.9556 3.48042L16.1715 2.72163C15.9929 2.54988 15.7513 2.45349 15.4994 2.45349C15.2476 2.45349 15.006 2.54988 14.8274 2.72163L2.34563 14.7949C2.16257 14.9713 2.0179 15.1815 1.92015 15.413C1.8224 15.6444 1.77355 15.8925 1.77649 16.1425C1.7886 17.1738 2.67561 17.997 3.74124 17.997H5.02786V27.539H25.971V17.997H27.2849C27.8026 17.997 28.29 17.8007 28.6563 17.4462C28.8366 17.2723 28.9796 17.0654 29.0767 16.8376C29.1739 16.6097 29.2234 16.3655 29.2224 16.1191C29.2224 15.621 29.0196 15.1494 28.6532 14.7949ZM17.1948 25.4296H13.8041V19.4531H17.1948V25.4296ZM23.7913 15.8876V25.4296H19.1323V18.75C19.1323 18.1025 18.5904 17.5781 17.9213 17.5781H13.0776C12.4085 17.5781 11.8666 18.1025 11.8666 18.75V25.4296H7.20755V15.8876H4.3013L15.5025 5.05659L16.2018 5.73335L26.7006 15.8876H23.7913Z" fill="#060606"/>
</svg>
