<svg width="25" height="25" viewBox="0 0 25 25" fill="none" xmlns="http://www.w3.org/2000/svg">
<g clip-path="url(#clip0)">
<path d="M6.89687 16.9375H6.89682C6.0018 16.9377 5.14351 17.2934 4.51072 17.9263C4.51071 17.9264 4.51071 17.9264 4.5107 17.9264L1.8125 20.6246V3.125C1.8125 2.7769 1.95078 2.44306 2.19692 2.19692C2.44306 1.95078 2.7769 1.8125 3.125 1.8125H21.875C22.2231 1.8125 22.5569 1.95078 22.8031 2.19692C23.0492 2.44306 23.1875 2.7769 23.1875 3.125V15.625C23.1875 15.9731 23.0492 16.3069 22.8031 16.5531C22.5569 16.7992 22.2231 16.9375 21.875 16.9375H6.89687ZM-0.25 23.1141V23.1141C-0.249957 23.3182 -0.189377 23.5176 -0.0759311 23.6872L0.131871 23.5482L-0.0759302 23.6872C0.0375162 23.8568 0.198731 23.989 0.387312 24.0669C0.575888 24.1449 0.783354 24.1651 0.983452 24.1251C1.18354 24.0851 1.36727 23.9866 1.51138 23.8422L5.96896 19.3846L5.96899 19.3846C6.21506 19.1384 6.54883 19.0001 6.89687 19C6.89689 19 6.89691 19 6.89693 19H21.875C22.7701 19 23.6285 18.6444 24.2615 18.0115C24.8944 17.3785 25.25 16.5201 25.25 15.625V3.125C25.25 2.22989 24.8944 1.37145 24.2615 0.738515C23.6285 0.105579 22.7701 -0.25 21.875 -0.25H3.125C2.22989 -0.25 1.37145 0.105579 0.738515 0.738515C0.105579 1.37145 -0.25 2.22989 -0.25 3.125V23.1141Z" fill="#060606" stroke="black" stroke-width="0.5"/>
<path d="M7.8125 9.375C7.8125 9.7894 7.64788 10.1868 7.35485 10.4799C7.06183 10.7729 6.6644 10.9375 6.25 10.9375C5.8356 10.9375 5.43817 10.7729 5.14515 10.4799C4.85212 10.1868 4.6875 9.7894 4.6875 9.375C4.6875 8.9606 4.85212 8.56317 5.14515 8.27015C5.43817 7.97712 5.8356 7.8125 6.25 7.8125C6.6644 7.8125 7.06183 7.97712 7.35485 8.27015C7.64788 8.56317 7.8125 8.9606 7.8125 9.375ZM14.0625 9.375C14.0625 9.7894 13.8979 10.1868 13.6049 10.4799C13.3118 10.7729 12.9144 10.9375 12.5 10.9375C12.0856 10.9375 11.6882 10.7729 11.3951 10.4799C11.1021 10.1868 10.9375 9.7894 10.9375 9.375C10.9375 8.9606 11.1021 8.56317 11.3951 8.27015C11.6882 7.97712 12.0856 7.8125 12.5 7.8125C12.9144 7.8125 13.3118 7.97712 13.6049 8.27015C13.8979 8.56317 14.0625 8.9606 14.0625 9.375ZM20.3125 9.375C20.3125 9.7894 20.1479 10.1868 19.8549 10.4799C19.5618 10.7729 19.1644 10.9375 18.75 10.9375C18.3356 10.9375 17.9382 10.7729 17.6451 10.4799C17.3521 10.1868 17.1875 9.7894 17.1875 9.375C17.1875 8.9606 17.3521 8.56317 17.6451 8.27015C17.9382 7.97712 18.3356 7.8125 18.75 7.8125C19.1644 7.8125 19.5618 7.97712 19.8549 8.27015C20.1479 8.56317 20.3125 8.9606 20.3125 9.375Z" fill="#060606"/>
</g>
<defs>
<clipPath id="clip0">
<rect width="25" height="25" fill="white"/>
</clipPath>
</defs>
</svg>
