<svg width="70" height="70" viewBox="0 0 70 70" fill="none" xmlns="http://www.w3.org/2000/svg">
<path d="M36.0269 6.82014C35.7105 6.65162 35.3574 6.56348 34.9988 6.56348C34.6403 6.56348 34.2872 6.65162 33.9707 6.82014L1.1582 24.3201C0.808754 24.5068 0.516579 24.785 0.312866 25.1248C0.109154 25.4646 0.00154877 25.8533 0.00154877 26.2495C0.00154877 26.6457 0.109154 27.0345 0.312866 27.3743C0.516579 27.7141 0.808754 27.9922 1.1582 28.1789L33.9707 45.6789C34.2872 45.8474 34.6403 45.9356 34.9988 45.9356C35.3574 45.9356 35.7105 45.8474 36.0269 45.6789L68.8395 28.1789C69.1889 27.9922 69.4811 27.7141 69.6848 27.3743C69.8885 27.0345 69.9961 26.6457 69.9961 26.2495C69.9961 25.8533 69.8885 25.4646 69.6848 25.1248C69.4811 24.785 69.1889 24.5068 68.8395 24.3201L36.0269 6.82014Z" fill="#060606"/>
<path d="M60.702 37.48L68.8395 41.82C69.1889 42.0067 69.4811 42.2848 69.6848 42.6246C69.8885 42.9644 69.9961 43.3532 69.9961 43.7494C69.9961 44.1455 69.8885 44.5343 69.6848 44.8741C69.4811 45.2139 69.1889 45.492 68.8395 45.6787L36.0269 63.1787C35.7105 63.3473 35.3574 63.4354 34.9988 63.4354C34.6403 63.4354 34.2872 63.3473 33.9707 63.1787L1.1582 45.6787C0.808754 45.492 0.516579 45.2139 0.312866 44.8741C0.109154 44.5343 0.00154877 44.1455 0.00154877 43.7494C0.00154877 43.3532 0.109154 42.9644 0.312866 42.6246C0.516579 42.2848 0.808754 42.0067 1.1582 41.82L9.2957 37.48L31.9144 49.5375C32.8639 50.0431 33.9231 50.3075 34.9988 50.3075C36.0745 50.3075 37.1337 50.0431 38.0832 49.5375L60.702 37.48Z" fill="#060606"/>
</svg>
