<svg width="495" height="593" viewBox="0 0 495 593" fill="none" xmlns="http://www.w3.org/2000/svg">
<ellipse opacity="0.8" cx="144.884" cy="344.333" rx="20.8386" ry="20.0523" transform="rotate(-41.0651 144.884 344.333)" fill="#060606"/>
<ellipse opacity="0.8" cx="191.893" cy="398.286" rx="20.8386" ry="20.0523" transform="rotate(-41.0651 191.893 398.286)" fill="white"/>
<ellipse opacity="0.8" cx="238.9" cy="452.239" rx="20.8386" ry="20.0523" transform="rotate(-41.0651 238.9 452.239)" fill="white"/>
<ellipse opacity="0.8" cx="285.909" cy="506.192" rx="20.8386" ry="20.0523" transform="rotate(-41.0651 285.909 506.192)" fill="white"/>
<ellipse opacity="0.8" cx="211.287" cy="286.477" rx="20.8386" ry="20.0523" transform="rotate(-41.0651 211.287 286.477)" fill="#060606"/>
<ellipse opacity="0.8" cx="258.295" cy="340.43" rx="20.8386" ry="20.0523" transform="rotate(-41.0651 258.295 340.43)" fill="#060606"/>
<ellipse opacity="0.8" cx="305.304" cy="394.383" rx="20.8386" ry="20.0523" transform="rotate(-41.0651 305.304 394.383)" fill="white"/>
<ellipse opacity="0.8" cx="352.312" cy="448.336" rx="20.8386" ry="20.0523" transform="rotate(-41.0651 352.312 448.336)" fill="white"/>
<ellipse opacity="0.8" cx="277.987" cy="228.362" rx="20.4454" ry="20.0523" transform="rotate(-41.0651 277.987 228.362)" fill="#060606"/>
<ellipse opacity="0.8" cx="324.995" cy="282.315" rx="20.4454" ry="20.0523" transform="rotate(-41.0651 324.995 282.315)" fill="#060606"/>
<ellipse opacity="0.8" cx="372.004" cy="336.268" rx="20.4454" ry="20.0523" transform="rotate(-41.0651 372.004 336.268)" fill="#060606"/>
<ellipse opacity="0.8" cx="419.012" cy="390.221" rx="20.4454" ry="20.0523" transform="rotate(-41.0651 419.012 390.221)" fill="white"/>
<ellipse opacity="0.8" cx="344.391" cy="170.506" rx="20.4454" ry="20.0523" transform="rotate(-41.0651 344.391 170.506)" fill="#060606"/>
<ellipse opacity="0.8" cx="391.399" cy="224.459" rx="20.4454" ry="20.0523" transform="rotate(-41.0651 391.399 224.459)" fill="#060606"/>
<ellipse opacity="0.8" cx="438.407" cy="278.412" rx="20.4454" ry="20.0523" transform="rotate(-41.0651 438.407 278.412)" fill="#060606"/>
<ellipse opacity="0.8" cx="485.416" cy="332.365" rx="20.4454" ry="20.0523" transform="rotate(-41.0651 485.416 332.365)" fill="#060606"/>
<ellipse opacity="0.8" cx="411.091" cy="112.391" rx="20.8386" ry="20.0523" transform="rotate(-41.0651 411.091 112.391)" fill="#060606"/>
<ellipse opacity="0.8" cx="458.099" cy="166.344" rx="20.8386" ry="20.0523" transform="rotate(-41.0651 458.099 166.344)" fill="#060606"/>
<ellipse opacity="0.8" cx="505.108" cy="220.297" rx="20.8386" ry="20.0523" transform="rotate(-41.0651 505.108 220.297)" fill="#060606"/>
</svg>
