<svg width="259" height="380" viewBox="0 0 259 380" fill="none" xmlns="http://www.w3.org/2000/svg">
<ellipse opacity="0.8" cx="132.087" cy="149.546" rx="11.6061" ry="11.1681" transform="rotate(-41.0651 132.087 149.546)" fill="#060606"/>
<ellipse opacity="0.8" cx="158.269" cy="179.595" rx="11.6061" ry="11.1681" transform="rotate(-41.0651 158.269 179.595)" fill="white"/>
<ellipse opacity="0.8" cx="184.449" cy="209.644" rx="11.6061" ry="11.1681" transform="rotate(-41.0651 184.449 209.644)" fill="white"/>
<ellipse opacity="0.8" cx="210.631" cy="239.693" rx="11.6061" ry="11.1681" transform="rotate(-41.0651 210.631 239.693)" fill="white"/>
<ellipse opacity="0.8" cx="169.069" cy="117.323" rx="11.6061" ry="11.1681" transform="rotate(-41.0651 169.069 117.323)" fill="#060606"/>
<ellipse opacity="0.8" cx="195.251" cy="147.372" rx="11.6061" ry="11.1681" transform="rotate(-41.0651 195.251 147.372)" fill="#060606"/>
<ellipse opacity="0.8" cx="221.433" cy="177.421" rx="11.6061" ry="11.1681" transform="rotate(-41.0651 221.433 177.421)" fill="white"/>
<ellipse opacity="0.8" cx="247.614" cy="207.47" rx="11.6061" ry="11.1681" transform="rotate(-41.0651 247.614 207.47)" fill="white"/>
<ellipse opacity="0.8" cx="206.219" cy="84.9554" rx="11.3871" ry="11.1681" transform="rotate(-41.0651 206.219 84.9554)" fill="#060606"/>
<ellipse opacity="0.8" cx="232.4" cy="115.005" rx="11.3871" ry="11.1681" transform="rotate(-41.0651 232.4 115.005)" fill="#060606"/>
<ellipse opacity="0.8" cx="258.581" cy="145.054" rx="11.3871" ry="11.1681" transform="rotate(-41.0651 258.581 145.054)" fill="#060606"/>
<ellipse opacity="0.8" cx="243.202" cy="52.7324" rx="11.3871" ry="11.1681" transform="rotate(-41.0651 243.202 52.7324)" fill="#060606"/>
<ellipse opacity="0.8" cx="269.384" cy="82.7815" rx="11.3871" ry="11.1681" transform="rotate(-41.0651 269.384 82.7815)" fill="#060606"/>
</svg>
