<svg width="70" height="70" viewBox="0 0 70 70" fill="none" xmlns="http://www.w3.org/2000/svg">
<g clip-path="url(#clip0)">
<path d="M49.9836 51.6251C50.8402 51.6263 51.6674 51.3124 52.3076 50.7431L70.0176 35.0001L51.3241 18.3821C50.6273 17.786 49.7244 17.4872 48.8096 17.5499C47.8948 17.6126 47.0411 18.0318 46.4322 18.7173C45.8232 19.4028 45.5076 20.3 45.5532 21.2158C45.5988 22.1316 46.002 22.993 46.6761 23.6146L59.4826 35.0001L47.6596 45.5071C47.1284 45.9784 46.7532 46.6001 46.5837 47.2897C46.4142 47.9793 46.4585 48.7041 46.7106 49.368C46.9628 50.0318 47.4109 50.6032 47.9955 51.0064C48.5801 51.4095 49.2735 51.6253 49.9836 51.6251ZM18.6761 51.6181L-0.0174103 35.0001L17.6926 19.2571C18.3865 18.6407 19.2968 18.3253 20.2232 18.3801C21.1497 18.4349 22.0165 18.8555 22.6328 19.5494C23.2492 20.2432 23.5647 21.1535 23.5099 22.08C23.4551 23.0065 23.0345 23.8733 22.3406 24.4896L10.5176 35.0001L23.3241 46.3821C24.0184 46.9985 24.4395 47.8654 24.4946 48.7922C24.5497 49.719 24.2344 50.6298 23.6181 51.3241C23.0017 52.0184 22.1348 52.4395 21.208 52.4946C20.2812 52.5498 19.3704 52.2345 18.6761 51.6181ZM35.0491 56.5776L28.0491 14.5776C27.9596 14.1186 27.963 13.6463 28.059 13.1886C28.1551 12.7309 28.342 12.2971 28.6085 11.9129C28.875 11.5286 29.2159 11.2017 29.6109 10.9513C30.0059 10.701 30.4471 10.5324 30.9084 10.4554C31.3697 10.3785 31.8417 10.3947 32.2966 10.5033C32.7515 10.6118 33.18 10.8104 33.5569 11.0873C33.9337 11.3642 34.2513 11.7139 34.4907 12.1156C34.7302 12.5173 34.8867 12.9629 34.9511 13.4261L41.9511 55.4261C42.0406 55.8851 42.0372 56.3574 41.9411 56.8151C41.845 57.2728 41.6582 57.7066 41.3917 58.0908C41.1251 58.4751 40.7843 58.8021 40.3892 59.0524C39.9942 59.3027 39.553 59.4713 39.0918 59.5483C38.6305 59.6252 38.1584 59.609 37.7035 59.5005C37.2486 59.3919 36.8201 59.1933 36.4433 58.9164C36.0664 58.6395 35.7489 58.2898 35.5094 57.8881C35.27 57.4864 35.1134 57.0408 35.0491 56.5776Z" fill="#060606"/>
</g>
<defs>
<clipPath id="clip0">
<rect width="70" height="70" fill="white" transform="matrix(-1 0 0 1 70 0)"/>
</clipPath>
</defs>
</svg>
