<svg width="33" height="33" viewBox="0 0 33 33" fill="none" xmlns="http://www.w3.org/2000/svg">
<path d="M16.5 2.75C13.7805 2.75 11.1221 3.55642 8.86091 5.06729C6.59974 6.57816 4.83737 8.72562 3.79666 11.2381C2.75596 13.7506 2.48366 16.5153 3.01421 19.1825C3.54476 21.8497 4.85432 24.2997 6.77729 26.2227C8.70026 28.1457 11.1503 29.4553 13.8175 29.9858C16.4848 30.5163 19.2494 30.244 21.7619 29.2033C24.2744 28.1626 26.4218 26.4003 27.9327 24.1391C29.4436 21.8779 30.25 19.2195 30.25 16.5C30.25 14.6943 29.8944 12.9063 29.2033 11.2381C28.5123 9.56988 27.4995 8.05409 26.2227 6.77728C24.9459 5.50048 23.4301 4.48766 21.7619 3.79666C20.0937 3.10565 18.3057 2.75 16.5 2.75ZM16.5 27.5C14.3244 27.5 12.1977 26.8549 10.3887 25.6462C8.57979 24.4375 7.1699 22.7195 6.33733 20.7095C5.50477 18.6995 5.28693 16.4878 5.71137 14.354C6.13581 12.2202 7.18345 10.2602 8.72183 8.72183C10.2602 7.18345 12.2202 6.1358 14.354 5.71136C16.4878 5.28692 18.6995 5.50476 20.7095 6.33733C22.7195 7.16989 24.4375 8.57979 25.6462 10.3887C26.8549 12.1977 27.5 14.3244 27.5 16.5C27.5 19.4174 26.3411 22.2153 24.2782 24.2782C22.2153 26.3411 19.4174 27.5 16.5 27.5Z" fill="#060606"/>
<path d="M16.5 8.24997C15.2236 8.24997 13.9996 8.757 13.097 9.65952C12.1945 10.562 11.6875 11.7861 11.6875 13.0625C11.6875 13.4271 11.8324 13.7769 12.0902 14.0347C12.3481 14.2926 12.6978 14.4375 13.0625 14.4375C13.4272 14.4375 13.7769 14.2926 14.0348 14.0347C14.2926 13.7769 14.4375 13.4271 14.4375 13.0625C14.4375 12.6545 14.5585 12.2558 14.7851 11.9166C15.0117 11.5774 15.3338 11.3131 15.7107 11.157C16.0876 11.0009 16.5023 10.96 16.9024 11.0396C17.3025 11.1192 17.67 11.3156 17.9584 11.6041C18.2469 11.8925 18.4433 12.26 18.5229 12.6601C18.6025 13.0602 18.5616 13.4749 18.4055 13.8518C18.2494 14.2286 17.985 14.5507 17.6459 14.7774C17.3067 15.004 16.9079 15.125 16.5 15.125C16.1353 15.125 15.7856 15.2698 15.5277 15.5277C15.2699 15.7856 15.125 16.1353 15.125 16.5V19.25C15.125 19.6146 15.2699 19.9644 15.5277 20.2222C15.7856 20.4801 16.1353 20.625 16.5 20.625C16.8647 20.625 17.2144 20.4801 17.4723 20.2222C17.7301 19.9644 17.875 19.6146 17.875 19.25V17.655C18.9861 17.3305 19.9425 16.6153 20.5679 15.6412C21.1933 14.6671 21.4455 13.4998 21.2781 12.3544C21.1106 11.2091 20.5348 10.1628 19.6567 9.40853C18.7786 8.65425 17.6575 8.24279 16.5 8.24997Z" fill="#060606"/>
<path d="M16.5 24.75C17.2594 24.75 17.875 24.1344 17.875 23.375C17.875 22.6156 17.2594 22 16.5 22C15.7406 22 15.125 22.6156 15.125 23.375C15.125 24.1344 15.7406 24.75 16.5 24.75Z" fill="#060606"/>
</svg>
