<svg width="33" height="33" viewBox="0 0 33 33" fill="none" xmlns="http://www.w3.org/2000/svg">
<path d="M28.8337 9.99627C28.9612 9.86906 29.0623 9.71797 29.1313 9.55163C29.2003 9.38529 29.2359 9.20698 29.2359 9.0269C29.2359 8.84681 29.2003 8.6685 29.1313 8.50216C29.0623 8.33582 28.9612 8.18473 28.8337 8.05752L24.9425 4.16627C24.8153 4.0388 24.6642 3.93768 24.4979 3.86868C24.3315 3.79968 24.1532 3.76416 23.9731 3.76416C23.793 3.76416 23.6147 3.79968 23.4484 3.86868C23.2821 3.93768 23.131 4.0388 23.0037 4.16627L16.83 10.34L11.4813 4.99127C10.4088 3.91877 8.6625 3.91877 7.59 4.99127L4.9775 7.60377C3.905 8.67627 3.905 10.4225 4.9775 11.495L10.3263 16.8438L4.125 23.045V28.875H9.955L16.17 22.66L21.5187 28.0088C22.825 29.315 24.585 28.8338 25.41 28.0088L28.0225 25.3963C29.095 24.3238 29.095 22.5775 28.0225 21.505L22.6737 16.1563L28.8337 9.99627ZM6.93 9.54252L9.52875 6.93002L11.275 8.67627L9.6525 10.3125L11.5913 12.2513L13.2275 10.615L14.8775 12.265L12.265 14.8775L6.93 9.54252ZM22.3713 19.7725L20.735 21.4088L22.6737 23.3475L24.31 21.7113L26.0563 23.4575L23.4437 26.07L18.095 20.7213L20.7075 18.1088L22.3713 19.7725ZM8.81375 26.125H6.875V24.1863L20.0887 10.9725L21.8762 12.76L22.0275 12.9113L8.81375 26.125ZM22.0275 9.02002L23.9663 7.08127L25.905 9.02002L23.9663 10.9588L22.0275 9.02002Z" fill="#060606"/>
</svg>
